<svg width="44" height="44" viewBox="0 0 44 44" fill="none" xmlns="http://www.w3.org/2000/svg">
<g clip-path="url(#clip0_1_21)">
<path d="M27.5 36.6667H9.16667C6.73641 36.6638 4.40652 35.6971 2.68807 33.9786C0.969617 32.2601 0.00291107 29.9303 0 27.5L0 9.16667C0.00291107 6.73641 0.969617 4.40652 2.68807 2.68807C4.40652 0.969617 6.73641 0.00291107 9.16667 0L27.5 0C29.9303 0.00291107 32.2601 0.969617 33.9786 2.68807C35.6971 4.40652 36.6638 6.73641 36.6667 9.16667V27.5C36.6638 29.9303 35.6971 32.2601 33.9786 33.9786C32.2601 35.6971 29.9303 36.6638 27.5 36.6667ZM9.16667 3.66667C7.70798 3.66667 6.30903 4.24613 5.27758 5.27758C4.24613 6.30903 3.66667 7.70798 3.66667 9.16667V27.5C3.66667 28.9587 4.24613 30.3576 5.27758 31.3891C6.30903 32.4205 7.70798 33 9.16667 33H27.5C28.9587 33 30.3576 32.4205 31.3891 31.3891C32.4205 30.3576 33 28.9587 33 27.5V9.16667C33 7.70798 32.4205 6.30903 31.3891 5.27758C30.3576 4.24613 28.9587 3.66667 27.5 3.66667H9.16667ZM44 34.8333V11C44 10.5138 43.8068 10.0475 43.463 9.70364C43.1192 9.35982 42.6529 9.16667 42.1667 9.16667C41.6804 9.16667 41.2141 9.35982 40.8703 9.70364C40.5265 10.0475 40.3333 10.5138 40.3333 11V34.8333C40.3333 36.292 39.7539 37.691 38.7224 38.7224C37.691 39.7539 36.292 40.3333 34.8333 40.3333H11C10.5138 40.3333 10.0475 40.5265 9.70364 40.8703C9.35982 41.2141 9.16667 41.6804 9.16667 42.1667C9.16667 42.6529 9.35982 43.1192 9.70364 43.463C10.0475 43.8068 10.5138 44 11 44H34.8333C37.2636 43.9971 39.5935 43.0304 41.3119 41.3119C43.0304 39.5935 43.9971 37.2636 44 34.8333Z" fill="#561C24"/>
</g>
<defs>
<clipPath id="clip0_1_21">
<rect width="44" height="44" fill="white"/>
</clipPath>
</defs>
</svg>
