<svg width="35" height="35" viewBox="0 0 35 35" fill="none" xmlns="http://www.w3.org/2000/svg">
<path fill-rule="evenodd" clip-rule="evenodd" d="M17.4993 0C7.8353 0 0 8.03222 0 17.9424C0 25.87 5.01354 32.5954 11.9666 34.9683C12.8415 35.1342 13.1624 34.5795 13.1624 34.1055C13.1624 33.6779 13.1463 32.2649 13.139 30.7652C8.27132 31.8508 7.24324 28.648 7.24324 28.648C6.44702 26.5742 5.30082 26.0225 5.30082 26.0225C3.71276 24.9085 5.4204 24.9325 5.4204 24.9325C7.17762 25.0596 8.10216 26.782 8.10216 26.782C9.66251 29.5242 12.1955 28.7318 13.1945 28.2727C13.3519 27.1125 13.8055 26.3215 14.3057 25.873C10.4194 25.4199 6.33328 23.8813 6.33328 17.0064C6.33328 15.0477 7.01721 13.4463 8.13716 12.1904C7.95488 11.7373 7.35553 9.91318 8.30632 7.44161C8.30632 7.44161 9.77626 6.96016 13.1201 9.28071C14.5156 8.88299 16.0118 8.68412 17.4993 8.67665C18.9867 8.68412 20.4844 8.88299 21.8828 9.28071C25.2223 6.95866 26.6908 7.44161 26.6908 7.44161C27.643 9.91318 27.0437 11.7373 26.8628 12.1904C27.9843 13.4463 28.6638 15.0477 28.6638 17.0064C28.6638 23.8978 24.5704 25.4154 20.6739 25.8595C21.301 26.4157 21.861 27.5087 21.861 29.1818C21.861 31.5831 21.8405 33.5149 21.8405 34.1055C21.8405 34.5825 22.1555 35.1432 23.0422 34.9668C29.9923 32.5909 35 25.8685 35 17.9439C34.9985 8.03371 27.1632 0 17.4993 0Z" fill="#561C24"/>
<path d="M6.62786 25.7622C6.58994 25.8519 6.45287 25.8788 6.32745 25.8175C6.20058 25.7592 6.12913 25.6366 6.16996 25.5484C6.20788 25.4572 6.34495 25.4318 6.47182 25.4931C6.59869 25.5499 6.67161 25.6725 6.62786 25.7622Z" fill="#561C24"/>
<path d="M7.33658 26.5727C7.25346 26.6519 7.09013 26.6145 6.9793 26.4904C6.8641 26.3648 6.84368 26.1974 6.92826 26.1181C7.0143 26.0389 7.17179 26.0762 7.287 26.2018C7.4022 26.3259 7.42407 26.4919 7.33658 26.5727Z" fill="#561C24"/>
<path d="M8.02634 27.6058C7.91843 27.6821 7.74344 27.6103 7.63553 27.4518C7.52761 27.2918 7.52761 27.1005 7.63844 27.0242C7.74635 26.9479 7.91989 27.0167 8.02926 27.1752C8.13571 27.3367 8.13571 27.5281 8.02634 27.6058Z" fill="#561C24"/>
<path d="M8.9713 28.6047C8.87506 28.7138 8.6709 28.6839 8.52216 28.5359C8.36904 28.3909 8.32675 28.186 8.42299 28.0769C8.5207 27.9677 8.72631 27.9991 8.87652 28.1456C9.02818 28.2907 9.07338 28.497 8.9713 28.6047Z" fill="#561C24"/>
<path d="M10.2765 29.1833C10.2342 29.3239 10.0373 29.3882 9.83897 29.3284C9.64065 29.2671 9.51086 29.1026 9.55169 28.9606C9.59253 28.8185 9.79085 28.7527 9.99063 28.817C10.1875 28.8768 10.3173 29.0413 10.2765 29.1833Z" fill="#561C24"/>
<path d="M11.7085 29.291C11.7129 29.439 11.5452 29.5616 11.3366 29.5646C11.1281 29.5691 10.9575 29.4494 10.956 29.3044C10.956 29.1549 11.1208 29.0338 11.3293 29.0293C11.5379 29.0248 11.7085 29.1444 11.7085 29.291Z" fill="#561C24"/>
<path d="M13.0413 29.0592C13.0661 29.2027 12.9218 29.3522 12.7147 29.3911C12.512 29.43 12.3239 29.3403 12.2976 29.1967C12.2728 29.0487 12.4201 28.9007 12.6228 28.8618C12.8284 28.8244 13.0151 28.9112 13.0413 29.0592Z" fill="#561C24"/>
</svg>
