<svg width="35" height="35" viewBox="0 0 35 35" fill="none" xmlns="http://www.w3.org/2000/svg">
<path d="M33.5445 33.914H33.8755L33.2411 32.7871C33.6291 32.7871 33.8347 32.4977 33.8376 32.1432C33.8376 32.1295 33.8376 32.114 33.8361 32.1003C33.8361 31.6174 33.5882 31.3862 33.0793 31.3862H32.2568V33.914H32.5659V32.8128H32.9466L33.5445 33.914ZM32.9247 32.5268H32.5659V31.6722H33.0209C33.2557 31.6722 33.5241 31.7167 33.5241 32.0781C33.5241 32.4925 33.2543 32.5268 32.9247 32.5268Z" fill="#561C24"/>
<path d="M25.216 29.6136H20.8308V21.5488C20.8308 19.6255 20.8016 17.1507 18.5499 17.1507C16.2662 17.1507 15.9162 19.2453 15.9162 21.41V29.6136H11.5325V13.0283H15.7427V15.2942H15.801C16.6599 13.5713 18.2554 12.542 19.9543 12.6156C24.3993 12.6156 25.2174 16.0495 25.2174 20.5143L25.216 29.6136ZM6.58435 10.7608C5.17852 10.7608 4.03957 9.42322 4.03957 7.77223C4.03957 6.12124 5.17852 4.78366 6.58435 4.78366C7.99018 4.78366 9.12914 6.12124 9.12914 7.77223C9.12914 9.42322 7.99018 10.7608 6.58435 10.7608ZM8.77622 29.6136H4.38665V13.0283H8.77622V29.6136ZM27.402 0.00194658H2.18312C0.991663 -0.0134672 0.0145833 1.10832 0 2.50755V32.246C0.0145833 33.6469 0.991663 34.7687 2.18312 34.7533H27.402C28.5964 34.7704 29.5778 33.6486 29.5939 32.246V2.50584C29.5764 1.10318 28.5949 -0.0186053 27.402 0.000233854" fill="#561C24"/>
<path d="M32.9626 30.261C31.8484 30.273 30.953 31.3451 30.9647 32.6536C30.9749 33.962 31.8878 35.0136 33.002 34.9999C34.1161 34.9879 35.0115 33.9158 34.9999 32.6073C34.9897 31.316 34.1001 30.273 33.002 30.261H32.9626ZM33.0093 34.7276C32.0322 34.7464 31.1805 33.8336 31.1645 32.6861C31.1484 31.5386 31.9272 30.5932 32.9043 30.5744C33.8813 30.5556 34.6863 31.4701 34.7024 32.6176C34.7024 32.6296 34.7024 32.6399 34.7024 32.6518C34.7228 33.7736 33.9645 34.7036 33.0093 34.7276H32.9641Z" fill="#561C24"/>
</svg>
